<?xml version="1.0" standalone="no"?>
<!DOCTYPE svg PUBLIC "-//W3C//DTD SVG 20010904//EN"
 "http://www.w3.org/TR/2001/REC-SVG-20010904/DTD/svg10.dtd">
<svg version="1.0" xmlns="http://www.w3.org/2000/svg"
 width="300.000000pt" height="227.000000pt" viewBox="0 0 300.000000 227.000000"
 preserveAspectRatio="xMidYMid meet">
<metadata>
Created by potrace 1.10, written by Peter Selinger 2001-2011
</metadata>
<g transform="translate(0.000000,227.000000) scale(0.100000,-0.100000)"
fill="#000000" stroke="none">
<path d="M1400 1927 c-36 -18 -159 -89 -275 -156 -116 -68 -229 -134 -253
-148 -75 -43 -100 -76 -107 -146 -4 -34 -5 -210 -3 -392 4 -382 0 -366 104
-434 34 -22 64 -41 67 -41 3 0 41 -22 84 -48 43 -26 86 -51 96 -55 10 -4 52
-28 94 -53 163 -99 259 -147 293 -147 29 0 89 27 175 78 33 19 76 43 95 53 19
9 37 20 40 24 7 9 222 128 232 128 4 0 8 5 8 10 0 6 4 10 10 10 5 0 41 20 80
45 104 66 100 49 100 482 0 341 -1 366 -20 402 -19 39 -39 53 -190 142 -41 24
-88 51 -105 61 -16 10 -48 27 -70 39 -22 12 -98 55 -168 97 -161 94 -191 99
-287 49z m440 -178 c173 -99 325 -192 338 -205 l22 -25 0 -384 0 -384 -22 -25
c-34 -36 -647 -386 -678 -386 -31 0 -644 350 -677 386 l-23 25 0 384 0 384 23
25 c33 36 646 386 677 386 15 0 155 -74 340 -181z"/>
<path d="M1460 1562 c-66 -33 -76 -108 -20 -156 l29 -24 -57 -17 c-31 -9 -63
-18 -69 -20 -16 -5 -5 -36 19 -53 23 -17 23 -46 -1 -63 -10 -8 -21 -26 -25
-40 l-6 -27 40 14 c37 13 66 11 125 -7 6 -1 29 3 52 9 34 10 49 10 83 -2 l41
-14 -7 31 c-3 18 -7 32 -8 32 0 0 -10 5 -20 11 -27 14 -30 30 -11 46 49 41 56
55 33 62 -7 3 -39 12 -70 21 l-57 17 29 24 c65 55 42 142 -45 168 -11 3 -36
-2 -55 -12z m74 -43 c14 -11 26 -27 26 -34 0 -22 -47 -100 -60 -100 -13 0 -60
78 -60 100 0 13 45 55 60 55 4 0 19 -9 34 -21z m8 -171 c-20 -5 -50 -5 -75 0
-39 8 -36 9 33 9 63 0 69 -1 42 -9z m63 -29 c3 -4 3 -25 -1 -48 -6 -38 -10
-42 -47 -52 -23 -6 -65 -8 -99 -4 -46 6 -58 11 -58 25 0 10 -3 31 -6 48 -5 26
-3 31 17 35 34 6 187 3 194 -4z"/>
<path d="M1333 1283 c-7 -3 -13 -14 -13 -25 0 -14 6 -19 22 -16 13 2 24 10 26
19 3 18 -15 29 -35 22z"/>
<path d="M1643 1283 c-21 -8 -15 -43 6 -43 11 0 23 5 27 11 8 14 -17 38 -33
32z"/>
<path d="M1090 1063 c0 -5 -9 -62 -20 -128 -24 -147 -24 -135 0 -135 16 0 20
7 20 34 0 47 9 66 30 66 13 0 19 -11 24 -50 6 -41 10 -50 27 -50 15 0 19 5 15
18 -6 17 -46 231 -46 245 0 4 -11 7 -25 7 -14 0 -25 -3 -25 -7z m39 -105 c1
-19 -4 -28 -15 -28 -12 0 -15 6 -10 23 3 12 6 33 7 47 0 23 1 23 9 5 5 -11 9
-32 9 -47z"/>
<path d="M1170 1055 c0 -9 9 -15 25 -15 l25 0 0 -120 c0 -100 3 -120 15 -120
13 0 15 20 15 120 l0 120 25 0 c16 0 25 6 25 15 0 12 -14 15 -65 15 -51 0 -65
-3 -65 -15z"/>
<path d="M1310 934 c0 -121 2 -135 17 -132 14 2 16 15 14 76 -2 67 -1 72 18
72 19 0 21 -6 21 -75 0 -60 3 -75 15 -75 13 0 15 22 15 135 0 113 -2 135 -15
135 -11 0 -15 -12 -15 -45 0 -39 -3 -45 -21 -45 -20 0 -21 4 -17 45 5 39 3 45
-13 45 -18 0 -19 -10 -19 -136z"/>
<path d="M1430 935 c0 -131 1 -135 21 -135 19 0 21 4 16 30 -4 17 -3 30 2 30
5 0 14 -13 20 -30 5 -16 17 -30 25 -30 19 0 20 13 5 42 -8 14 -8 23 0 31 15
15 14 170 -1 185 -7 7 -29 12 -50 12 l-38 0 0 -135z m65 29 c0 -48 -4 -69 -12
-69 -7 0 -13 3 -13 8 0 4 0 37 0 73 0 48 3 65 13 62 8 -3 12 -27 12 -74z"/>
<path d="M1550 935 l0 -135 45 0 c38 0 45 3 45 20 0 15 -7 20 -25 20 -24 0
-25 3 -25 56 0 55 1 56 25 50 20 -5 25 -3 25 14 0 15 -7 20 -25 20 -21 0 -25
5 -25 31 0 28 3 31 25 27 19 -4 25 -1 25 13 0 16 -8 19 -45 19 l-45 0 0 -135z"/>
<path d="M1663 1056 c26 -67 48 -166 46 -204 -3 -38 0 -48 14 -50 14 -3 17 5
17 51 0 31 10 84 25 127 30 88 30 90 6 90 -14 0 -22 -12 -31 -47 -13 -51 -20
-46 -34 20 -5 19 -13 27 -27 27 -14 0 -19 -5 -16 -14z"/>
<path d="M1835 958 c-9 -62 -19 -123 -22 -135 -4 -18 -1 -23 15 -23 16 0 21 9
26 50 5 40 10 50 25 50 15 0 21 -10 26 -50 6 -41 10 -50 27 -50 16 0 19 5 15
23 -3 12 -13 63 -22 112 -24 139 -23 135 -49 135 -22 0 -24 -6 -41 -112z m55
11 c0 -29 -4 -39 -16 -39 -11 0 -14 5 -10 16 3 9 6 29 6 45 0 18 4 28 10 24 6
-3 10 -24 10 -46z"/>
</g>
</svg>
